<mxfile host="app.diagrams.net" modified="2024-06-25T08:04:47.175Z" agent="Mozilla/5.0 (Windows NT 10.0; Win64; x64) AppleWebKit/537.36 (KHTML, like Gecko) Chrome/126.0.0.0 Safari/537.36" version="24.6.2" etag="M8uTWHvZiAmI8AH1pJ13" type="github">
  <diagram name="Trang-1" id="fpDJ7vYo9jlNlIvPpU9_">
    <mxGraphModel>
      <root>
        <mxCell id="0" />
        <mxCell id="1" parent="0" />
      </root>
    </mxGraphModel>
  </diagram>
</mxfile>
